<?xml version="1.0" encoding="UTF-8"?>
<svg width="159px" height="168px" viewBox="0 0 159 168" version="1.1" xmlns="http://www.w3.org/2000/svg" xmlns:xlink="http://www.w3.org/1999/xlink">
    <!-- Generator: Sketch 53 (72520) - https://sketchapp.com -->
    <title>Artboard</title>
    <desc>Created with Sketch.</desc>
    <g id="Artboard" stroke="none" stroke-width="1" fill="none" fill-rule="evenodd">
        <g id="创意提案01-copy-3" transform="translate(1.000000, 0.000000)" fill="#07AEFC" fill-rule="nonzero">
            <path d="M16.9389223,1.72954839 L16.8928459,1.70223804 C16.5433955,1.49942603 16.1017658,1.6203337 15.8982198,1.97136374 L15.4988554,2.66562848 C15.2914982,3.02445384 15.4143513,3.48472525 15.7676655,3.68753726 L15.8137419,3.71484761 C16.1631924,3.91765962 16.604822,3.79675195 16.808368,3.44572191 L17.2077324,2.75145717 C17.4150896,2.39263181 17.2922366,1.9323604 16.9389223,1.72954839 Z M5.73687455,2.8022069 L5.3182963,2.08063181 C5.12245161,1.73349944 4.6846595,1.61646274 4.34669534,1.81543048 L4.2775675,1.85440712 C3.9319546,2.05721913 3.81286022,2.50577086 4.01259498,2.85680089 L4.42733572,3.57837597 C4.62701792,3.92161068 5.06097252,4.04254505 5.39893668,3.84357731 L5.46806452,3.80460067 C5.82135245,3.60571301 5.94039427,3.15716129 5.73687455,2.8022069 Z M13.5364397,22.5150701 L8.49034409,22.5150701 C8.13319235,22.5150701 7.80295579,22.7569121 7.7414767,23.1157375 C7.65697252,23.5838042 8.01028674,23.9894283 8.45575388,23.9894283 L13.5172258,23.9894283 C13.8321386,23.9894283 14.1354863,23.7944116 14.2276655,23.4901802 C14.3812975,22.9830834 14.0126069,22.5150701 13.5364397,22.5150701 Z M11.0326189,0.0211968854 L10.955816,0.0211968854 C10.5564516,0.0211968854 10.2338375,0.348867631 10.2338375,0.754491657 L10.2338375,1.57358843 C10.2338375,1.97921246 10.5564516,2.3068832 10.955816,2.3068832 L11.0326189,2.3068832 C11.4319833,2.3068832 11.7545974,1.97921246 11.7545974,1.57358843 L11.7545974,0.754491657 C11.7545711,0.348814238 11.4319833,0.0211968854 11.0326189,0.0211968854 Z M0.379729988,7.73624917 L1.09400717,8.14966852 C1.43962007,8.34858287 1.87741219,8.23157286 2.07709438,7.88446719 L2.10398327,7.83766852 C2.30750299,7.48274082 2.18848746,7.03026474 1.83517324,6.82745273 L1.12473357,6.41010901 C0.779120669,6.21119466 0.341328554,6.32820467 0.141646356,6.67531034 L0.114757467,6.72210901 C-0.0926523297,7.0770901 0.026442055,7.52953949 0.379729988,7.73624917 Z M10.4527336,3.72659399 C6.28222222,3.99571969 2.89895341,7.45153281 2.66084349,11.6913103 C2.46883632,15.1158888 4.27378256,18.1270478 7.00420072,19.6404093 L7.00420072,20.3073904 C7.00420072,20.9158799 7.49190681,21.4151279 8.09484349,21.4151279 L13.9089677,21.4151279 C14.5080669,21.4151279 14.9996105,20.9197775 14.9996105,20.3073904 L14.9996105,19.6404093 C17.5956368,18.2011568 19.3582915,15.4045295 19.3582915,12.1905584 C19.3467527,7.32282981 15.3106332,3.4145673 10.4527336,3.72659399 Z M14.1470251,18.6223982 L13.6055675,18.8720623 L13.6055675,20.1397108 L8.3828411,20.1397108 L8.3828411,18.8915239 L7.84138351,18.6223982 C5.25689606,17.3157464 3.56331661,14.4606274 3.96273357,11.2466563 C4.36593548,7.9898109 6.9696368,5.38427586 10.1839761,5.02152614 C14.462043,4.53789544 18.0872067,7.92736819 18.0872067,12.1788654 C18.0871541,15.0067275 16.4780789,17.4444761 14.1470251,18.6223982 Z M20.8636487,6.41010901 L20.1570466,6.81573304 C19.8037587,7.02244271 19.6808793,7.47881646 19.8882366,7.83764182 L19.9074504,7.8727208 C20.1109701,8.22375083 20.5525998,8.3447119 20.9020765,8.1418465 L21.6086786,7.73622247 C21.9619665,7.52951279 22.0848459,7.07313904 21.8774886,6.71431368 L21.8544373,6.67918131 C21.6547288,6.33207564 21.2130992,6.21119466 20.8636487,6.41010901 Z M15.16854,10.1038398 C15.160865,10.1662291 15.1723775,10.2247475 15.1877539,10.2793682 L15.1839164,10.2793682 C15.1839164,10.2832659 15.1877539,10.2832659 15.1877539,10.2832659 C15.2031302,10.3573749 15.2338303,10.4236885 15.2799331,10.4782825 C15.3528984,10.6303982 15.5218805,10.9190389 15.5372043,10.9073192 C15.6293835,11.012663 15.7637754,11.0750523 15.9135699,11.0750523 C16.2054313,11.0750523 16.4435412,10.8293126 16.4435412,10.5251079 C16.4397037,10.3729922 16.3744134,10.2520845 16.3322007,10.1077642 C16.2592354,9.92056952 16.0057491,9.62023582 15.9789128,9.64359511 C15.9059474,9.58510345 15.8214432,9.53825139 15.729264,9.53825139 C15.4565639,9.53435373 15.1992927,9.79181313 15.16854,10.1038398 Z M15.414325,8.80885428 C15.4297013,8.62555729 15.364411,8.46561958 15.2568554,8.35640489 L15.260693,8.35250723 C14.4158614,7.33059844 13.2291756,6.58950834 11.6700669,6.28914794 C11.6700669,6.29304561 11.6662294,6.29694327 11.6662294,6.30086763 C11.6278542,6.2930723 11.5894265,6.28135261 11.5510514,6.28135261 C11.2515149,6.28525028 11.0019188,6.53491435 10.9980812,6.83909232 C10.9980812,7.05362403 11.1363369,7.22525473 11.3321553,7.30715907 C11.3283178,7.31105673 11.3283178,7.31495439 11.3283178,7.32277642 C12.6916081,7.56461846 13.6708578,8.20818687 14.3966738,9.07797998 C14.4082127,9.07018465 14.653945,9.37051835 14.8536798,9.37441602 C15.1340024,9.37446941 15.3874361,9.12090768 15.414325,8.80885428 Z" id="形状"></path>
        </g>
        <g id="设计-copy-2" transform="translate(0.000000, 144.000000)" fill="#07AEFC" fill-rule="nonzero">
            <path d="M7.30999088,22.3416458 C7.17486753,22.3416458 7.0397442,22.2901767 6.9366159,22.1869669 L1.83642275,17.0867738 C1.73736852,16.9877738 1.68174388,16.8534653 1.68174388,16.7133173 C1.68174388,16.5733051 1.73734136,16.4389965 1.83642275,16.3399966 L17.1884441,0.987920968 C17.5253697,0.65099534 17.9842459,0.457830064 18.4473319,0.457830064 C18.8823068,0.457830064 19.2871337,0.622965729 19.5869852,0.922953132 L23.1004637,4.43643159 C23.417698,4.75366588 23.5824262,5.18217663 23.5643645,5.64295401 C23.5467102,6.08811412 23.3590314,6.51141005 23.0354144,6.83494558 L7.68344734,22.1869669 C7.58029187,22.2901767 7.44511422,22.3416458 7.30999088,22.3416458 Z M2.95657487,16.7133173 L7.30999088,21.0668691 L22.2886101,6.08811412 C22.4235976,5.95312657 22.5018198,5.78025019 22.5088815,5.60147998 C22.5154,5.43832704 22.4602642,5.28981359 22.3535236,5.18320873 L18.8401809,1.66978457 C18.739823,1.56929083 18.6002182,1.51396496 18.4473047,1.51396496 C18.2622061,1.51396496 18.0754779,1.59441427 17.9351941,1.73477959 L2.95657487,16.7133173 Z M1.20806526,23.3429165 C0.95406055,23.3429165 0.730040991,23.1590401 0.687534837,22.9002009 C0.640357089,22.6124357 0.835342127,22.340831 1.12318878,22.2937076 L7.22448969,21.2924368 C7.51252648,21.2453134 7.78385959,21.4403256 7.8311188,21.7280908 C7.87829655,22.0158559 7.68331151,22.2874607 7.39546485,22.3347199 L1.29416394,23.3358548 C1.26523806,23.3404721 1.23644797,23.3429165 1.20806526,23.3429165 Z M1.20806526,23.3429165 C0.95406055,23.3429165 0.730040991,23.1590401 0.687534837,22.9002009 C0.640357089,22.6124357 0.835342127,22.340831 1.12318878,22.2937076 L7.22448969,21.2924368 C7.51252648,21.2453134 7.78385959,21.4403256 7.8311188,21.7280908 C7.87829655,22.0158559 7.68331151,22.2874607 7.39546485,22.3347199 L1.29416394,23.3358548 C1.26523806,23.3404721 1.23644797,23.3429165 1.20806526,23.3429165 Z M1.20934181,23.3429165 C1.18087764,23.3429165 1.15216901,23.3404721 1.12318878,23.3358548 C0.835369288,23.2885956 0.640357112,23.0169909 0.687534837,22.7292257 L1.68872411,16.6279248 C1.73592901,16.3401596 2.00745223,16.1451474 2.29527173,16.1924067 C2.58309122,16.2395301 2.7781034,16.5111348 2.73092567,16.7989 L1.72973641,22.9002009 C1.68731176,23.1590401 1.4632922,23.3429165 1.20934181,23.3429165 Z M1.20934181,23.3429165 C1.18087764,23.3429165 1.15216901,23.3404721 1.12318878,23.3358548 C0.835369288,23.2885956 0.640357112,23.0169909 0.687534837,22.7292257 L1.68872411,16.6279248 C1.73592901,16.3401596 2.00745223,16.1451474 2.29527173,16.1924067 C2.58309122,16.2395301 2.7781034,16.5111348 2.73092567,16.7989 L1.72973641,22.9002009 C1.68731176,23.1590401 1.4632922,23.3429165 1.20934181,23.3429165 Z M20.5682659,9.0832893 C20.4331425,9.0832893 20.2980192,9.03176588 20.1948094,8.92861042 L15.0947521,3.82841727 C14.8884683,3.62221499 14.8884683,3.28786958 15.0947521,3.08164013 C15.3010358,2.87543785 15.6353812,2.87543785 15.8415292,3.08164013 L20.9417224,8.18183328 C21.1478703,8.38803557 21.1478703,8.72238097 20.9417224,8.92861042 C20.8385125,9.03173872 20.703525,9.0832893 20.5682659,9.0832893 Z M16.1168006,21.914819 C15.9816772,21.914819 15.8464181,21.8632141 15.7433441,21.7600043 C15.5370603,21.5538563 15.5370603,21.2195109 15.7433441,21.013363 L18.5483417,18.2083654 C18.7544897,18.0020816 19.0888351,18.0020816 19.2951188,18.2083654 C19.5014026,18.4146491 19.5014026,18.7489946 19.2951188,18.9551425 L16.4901212,21.7600043 C16.3870472,21.8632141 16.2519239,21.914819 16.1168006,21.914819 Z M14.2184195,20.0164379 C14.0832961,20.0164379 13.9481728,19.9649688 13.844963,19.861759 C13.6388151,19.6556111 13.6388151,19.3212657 13.8450988,19.1149819 L16.6500964,16.3099843 C16.8562444,16.1038363 17.1905898,16.1038363 17.3968736,16.3099843 C17.6031573,16.5162681 17.6031573,16.8507493 17.3967378,17.0568972 L14.591876,19.861759 C14.488802,19.9649688 14.3536786,20.0164379 14.2184195,20.0164379 Z M18.6667613,23.9999283 C18.2259469,23.9999283 17.8116139,23.8282741 17.4999475,23.5166077 L11.5534613,17.5700943 C11.347259,17.3638106 11.347259,17.0294651 11.5534613,16.8233172 L16.8233802,11.5534526 C16.9223801,11.4543984 17.0566887,11.3987737 17.1968367,11.3987737 C17.3367131,11.3987737 17.4711574,11.4543712 17.5701573,11.5534526 L23.5167794,17.4998845 C23.82831,17.8115509 23.9999641,18.2258839 23.9999641,18.6666983 C23.9999641,19.1075127 23.8283099,19.5218457 23.5166436,19.8335121 L19.8335752,23.5166077 C19.5217729,23.8282741 19.10744,23.9999283 18.6667613,23.9999283 Z M12.6736949,17.1967737 L18.2467518,22.7698306 C18.3590604,22.8820033 18.5081713,22.9439292 18.6667885,22.9439292 C18.8254056,22.9439292 18.9745166,22.8820033 19.0866894,22.7698306 L22.7699207,19.0865992 C22.8820935,18.9744265 22.9438836,18.8253155 22.9438836,18.6666983 C22.9438836,18.5080812 22.8820935,18.3589702 22.7699207,18.2467975 L17.1967009,12.6736319 L12.6736949,17.1967737 Z M2.63670601,8.43469726 C2.50158266,8.43469726 2.36640501,8.38309236 2.26333103,8.28001838 C2.05712874,8.07381609 2.05712874,7.73938921 2.26333103,7.53318692 L5.06824713,4.72827081 C5.27444942,4.52206853 5.60879483,4.52206853 5.8150786,4.72827081 C6.02128088,4.9344731 6.02128088,5.26881851 5.8150786,5.47510228 L3.01008101,8.28001838 C2.90700702,8.38309236 2.77182935,8.43469726 2.63670601,8.43469726 Z M4.5350056,10.3329425 C4.39988226,10.3329425 4.26470461,10.2814191 4.16163063,10.178318 C3.95534686,9.97203421 3.95534686,9.6376888 4.16163063,9.43148652 L6.96654673,6.62648893 C7.17274902,6.42028664 7.50709442,6.42028664 7.71332387,6.62648893 C7.91960764,6.83269122 7.91960764,7.1671181 7.71332387,7.37332039 L4.9083806,10.178318 C4.8052523,10.281392 4.67012895,10.3329425 4.5350056,10.3329425 Z M6.82667031,12.6246072 C6.68660375,12.6246072 6.55229524,12.5689283 6.45321385,12.4700642 L0.506700433,6.52336065 C0.195034045,6.21177574 0.0233798634,5.79736128 0.0233798634,5.35662832 C0.0233798634,4.91589537 0.195034045,4.50156239 0.506700433,4.189896 L4.18985034,0.506718907 C4.50151673,0.195052519 4.91590403,0.0233983376 5.35658267,0.0233983376 C5.35666415,0.0233983376 5.35658267,0.0233983376 5.35658267,0.0233983376 C5.79731562,0.0233983376 6.21173008,0.195052519 6.52339647,0.506718907 L12.4698284,6.45328662 C12.6761121,6.65948891 12.6761121,6.99383431 12.4698284,7.20006376 L7.20004528,12.4700642 C7.10104538,12.5689283 6.96668254,12.6246072 6.82667031,12.6246072 Z M5.35666417,1.07958755 C5.1979927,1.07958755 5.04888171,1.14137762 4.93670899,1.25346889 L1.2534776,4.93670028 C1.14130485,5.04887302 1.07951478,5.19798399 1.07959626,5.35660114 C1.07959626,5.51527261 1.14138633,5.6643836 1.2534776,5.77655632 L6.82664317,11.3497219 L11.3497306,6.82663444 L5.77664652,1.25349605 C5.66447377,1.1413233 5.51528132,1.07958755 5.35666417,1.07958755 Z" id="形状"></path>
        </g>
        <g id="设计初稿-copy-3" transform="translate(0.000000, 98.000000)" fill="#07AEFC" fill-rule="nonzero">
            <path d="M21.2359688,16.9369688 C21.1043438,16.8824063 20.9528438,16.9125469 20.8520625,17.0132813 L17.0024063,20.8629375 C16.9016719,20.9637188 16.8715313,21.1152188 16.9260938,21.2468438 C16.9805625,21.3785156 17.1090938,21.4642969 17.2515469,21.4642969 L21.1012031,21.4642969 C21.2957813,21.4642969 21.4534688,21.3066094 21.4534688,21.1120313 L21.4534688,17.262375 C21.4534219,17.1199219 21.3675938,16.9914844 21.2359688,16.9369688 Z M18.1018594,20.7598125 L20.7488437,18.1128281 L20.7488437,20.7598125 L18.1018594,20.7598125 Z" id="形状"></path>
            <path d="M23.7825469,11.2906406 C23.6509219,11.2360781 23.4994219,11.2662187 23.3986406,11.3669531 L22.343625,12.4219687 L22.343625,5.24864062 C22.343625,5.0540625 22.1858906,4.896375 21.9913594,4.896375 L19.28475,4.896375 L20.26725,3.913875 C20.2673906,3.91373437 20.2675312,3.91354688 20.2676719,3.91340625 L21.2143594,2.96671875 C21.4171875,2.76389063 21.5288906,2.49407812 21.5288906,2.20720312 C21.5288906,1.92032812 21.4171875,1.65060937 21.2143594,1.4476875 L20.1196406,0.35296875 C19.9168125,0.150140625 19.647,0.0384375 19.360125,0.0384375 C19.07325,0.0384375 18.8034844,0.150140625 18.6006094,0.35296875 L17.6534531,1.300125 L16.5089531,2.444625 L14.05725,4.89632812 L3.1228125,4.89632812 L3.1228125,1.41140625 C3.1228125,1.21682812 2.96507813,1.05914062 2.77054687,1.05914062 C1.24289063,1.05923437 0,2.30203125 0,3.82978125 L0,18.791625 C0,18.8176406 0.003,18.8429531 0.00834375,18.8673281 C0.057,19.5155625 0.337453125,20.1178594 0.80615625,20.5750781 C1.30715625,21.0637031 1.96851562,21.3328125 2.66845313,21.3328125 L13.4327344,21.3328125 L11.4054375,23.3601094 C11.3047031,23.4608906 11.2745625,23.6123438 11.3290781,23.7440156 C11.3835938,23.8756406 11.5120781,23.9614688 11.6545313,23.9614688 L23.6477344,23.9614688 C23.8422656,23.9614688 24,23.8037813 24,23.6092031 L24,11.6160937 C24,11.4736406 23.914125,11.3451562 23.7825469,11.2906406 Z M19.0988906,0.851203125 C19.2428906,0.707109375 19.4775,0.707109375 19.6215,0.851203125 L20.7162656,1.94596875 C20.8603594,2.09001563 20.8603594,2.32453125 20.7162656,2.468625 L20.01825,3.1666875 L18.4007813,1.54926563 L19.0988906,0.851203125 Z M17.9025938,2.04745312 L19.5200156,3.66482812 L18.8736563,4.3111875 L17.2563281,2.6938125 L17.9025938,2.04745312 Z M23.2955625,15.5743125 L22.6456406,15.5743125 C22.4510625,15.5743125 22.293375,15.732 22.293375,15.9265781 C22.293375,16.1211563 22.4510625,16.2788438 22.6456406,16.2788438 L23.2955625,16.2788438 L23.2955625,17.340375 L22.6456406,17.340375 C22.4510625,17.340375 22.293375,17.4980625 22.293375,17.6926406 C22.293375,17.8872188 22.4510625,18.0449063 22.6456406,18.0449063 L23.2955625,18.0449063 L23.2955625,19.1063906 L22.6456406,19.1063906 C22.4510625,19.1063906 22.293375,19.2640781 22.293375,19.4586563 C22.293375,19.6532344 22.4510625,19.8109219 22.6456406,19.8109219 L23.2955625,19.8109219 L23.2955625,20.8724531 L22.6456406,20.8724531 C22.4510625,20.8724531 22.293375,21.0301875 22.293375,21.2247188 C22.293375,21.4192969 22.4510625,21.5769844 22.6456406,21.5769844 L23.2955625,21.5769844 L23.2955625,23.2570781 L12.5049375,23.2570781 L16.063125,19.6989375 C16.2007031,19.5613125 16.2007031,19.3383281 16.063125,19.20075 C16.0473281,19.1849531 16.0303594,19.1712656 16.0125938,19.1590781 C15.8754375,19.0651406 15.6867188,19.0789688 15.5648906,19.20075 L14.1372656,20.628375 L2.6685,20.628375 C1.600125,20.628375 0.7400625,19.7942813 0.70621875,18.7278281 C0.708234375,18.6608906 0.7134375,18.5945156 0.72178125,18.5288906 C0.721828125,18.5285156 0.721875,18.5281406 0.721921875,18.5277656 C0.725859375,18.4965938 0.73059375,18.4655625 0.735984375,18.4347188 C0.73659375,18.4312031 0.73725,18.4276875 0.737859375,18.4241719 C0.74278125,18.3966563 0.7483125,18.3692813 0.754359375,18.342 C0.756046875,18.3344063 0.757828125,18.3268125 0.759609375,18.3192656 C0.764953125,18.2962031 0.77071875,18.2732813 0.77690625,18.2504531 C0.78028125,18.2380781 0.783796875,18.2258438 0.78740625,18.2135156 C0.7925625,18.1956094 0.79790625,18.17775 0.803578125,18.1600781 C0.80925,18.1424063 0.815296875,18.1249219 0.8214375,18.1074375 C0.825703125,18.0952031 0.829921875,18.0829688 0.834515625,18.0708281 C0.84309375,18.0477656 0.8521875,18.0249375 0.8615625,18.0022969 C0.864234375,17.9957813 0.866859375,17.9891719 0.869625,17.9826563 C0.881671875,17.9545313 0.8941875,17.9267344 0.90740625,17.8992656 C0.90796875,17.8980938 0.908484375,17.8969219 0.909046875,17.89575 C1.18457812,17.3255625 1.7145,16.9004531 2.35045312,16.7685469 C2.35223438,16.7681719 2.35401562,16.76775 2.35579687,16.767375 C2.38495312,16.7614219 2.41439062,16.7563125 2.44401562,16.7515781 C2.4489375,16.7507813 2.45385937,16.7497969 2.458875,16.7490469 C2.48564062,16.7449688 2.5126875,16.7417813 2.53973437,16.7387344 C2.54732812,16.7378906 2.554875,16.7367188 2.56251562,16.7359688 C2.588625,16.7333438 2.61496875,16.7316094 2.6413125,16.7299688 C2.64965625,16.7294531 2.658,16.7285625 2.66634375,16.7281406 C2.70084375,16.7264063 2.735625,16.7255156 2.77054687,16.7255156 C2.96507812,16.7255156 3.1228125,16.5678281 3.1228125,16.37325 L3.1228125,13.8190781 C3.1228125,13.6245 2.96507812,13.4668125 2.77054687,13.4668125 C2.57601562,13.4668125 2.41828125,13.6245 2.41828125,13.8190781 L2.41828125,16.0431563 C1.8234375,16.1183906 1.27129687,16.3837031 0.835921875,16.8088594 C0.790125,16.8535781 0.74671875,16.9000781 0.7044375,16.9473281 L0.7044375,3.82978125 C0.7044375,2.81067187 1.44628125,1.9614375 2.41823437,1.79371875 L2.41823437,5.24864063 L2.41823437,12.4100625 L2.41823437,12.4101094 C2.41823437,12.6046406 2.57596875,12.762375 2.7705,12.762375 C2.96503125,12.762375 3.12276562,12.6046406 3.12276562,12.4101094 L3.12276562,12.4100625 L3.12276562,5.60090625 L13.3527656,5.60090625 L11.4053906,7.54828125 C11.2678125,7.68590625 11.2678125,7.90889063 11.4053906,8.04646875 C11.5429688,8.184 11.766,8.184 11.9035313,8.04646875 L14.4522656,5.49773438 C14.4523594,5.49764063 14.4524062,5.49754688 14.4525,5.4975 L16.7580469,3.19195313 L18.375375,4.809375 L18.185625,4.999125 C18.1854844,4.99926563 18.1852969,4.99940625 18.1851563,4.99954688 L11.0822813,12.1025156 L9.46490625,10.4851406 L10.8649688,9.08507813 C11.0025469,8.94745313 11.0025469,8.72446875 10.8649688,8.58689063 C10.7273906,8.44935938 10.5043594,8.44935938 10.3668281,8.58689063 L8.717625,10.2360469 C8.7088125,10.2448594 8.7005625,10.2541875 8.69282813,10.26375 C8.69025,10.2669375 8.68795312,10.2703594 8.68551563,10.2736875 C8.68054688,10.2802969 8.67567188,10.2869531 8.671125,10.2938906 C8.66854688,10.2979219 8.66620313,10.3020469 8.66376562,10.3062188 C8.659875,10.3127813 8.656125,10.3194375 8.65270313,10.3262344 C8.65045313,10.3306406 8.6484375,10.3350938 8.646375,10.3396875 C8.64323438,10.3465781 8.64032813,10.3536094 8.63765625,10.3606406 C8.63671875,10.363125 8.6355,10.3654688 8.63460938,10.3679531 L7.9483125,12.3120938 L7.48040625,13.6376719 C7.47421875,13.6552969 7.46976563,13.6732031 7.4664375,13.69125 L6.2949375,13.69125 C6.10040625,13.69125 5.94267188,13.8489375 5.94267188,14.0435156 C5.94267188,14.2380938 6.10040625,14.3957813 6.2949375,14.3957813 L16.0502813,14.3957813 C16.2448594,14.3957813 16.4025469,14.2380938 16.4025469,14.0435156 C16.4025469,13.8489375 16.2448594,13.69125 16.0502813,13.69125 L9.05123437,13.69125 L11.1995156,12.9329063 C11.2012969,12.93225 11.2029844,12.9313594 11.2047656,12.9307031 C11.2131094,12.9276094 11.2213125,12.9241406 11.2294219,12.9204375 C11.2326563,12.9189375 11.2358906,12.9175313 11.2390313,12.9159844 C11.2474688,12.9117656 11.2557656,12.907125 11.2639219,12.9021563 C11.2665469,12.9005625 11.2692656,12.8991094 11.2718438,12.8974688 C11.2803281,12.8920313 11.2885781,12.8860781 11.2966875,12.8797969 C11.2987031,12.87825 11.3008125,12.8768906 11.3027813,12.8752969 C11.3125781,12.8674219 11.3221875,12.8589375 11.3312813,12.8498438 L18.5802188,5.60095312 L21.6390469,5.60095312 L21.6390469,13.1265469 L16.6001719,18.1654688 C16.4625938,18.3030938 16.4625938,18.5260781 16.6001719,18.6636563 C16.60875,18.6722344 16.6177031,18.6802969 16.6269375,18.6878438 C16.6915313,18.7404844 16.7704219,18.7668281 16.8492656,18.7668281 C16.9281094,18.7668281 17.0070469,18.7404844 17.0715938,18.6878438 C17.0808281,18.6803438 17.0897813,18.6722344 17.0983594,18.6636563 C17.0985,18.6635156 17.0983594,18.6636563 17.0985,18.6635156 L23.2955625,12.4664063 L23.2955625,15.5743125 Z M10.4379844,12.4545 L9.42895313,12.8107031 L8.75667188,12.1384219 L9.112875,11.1293906 L10.4379844,12.4545 Z" id="形状"></path>
        </g>
        <g id="时间-copy" transform="translate(0.000000, 48.000000)" fill="#07AEFC" fill-rule="nonzero">
            <path d="M11.9972267,23.9816471 C5.37176,23.9816471 0.000906666667,18.6165416 0.000906666667,11.9986415 C0.000906666667,5.38071476 5.37176,0.01563596 11.9972267,0.01563596 C18.62248,0.01563596 23.9935467,5.38071476 23.9935467,11.9986415 C23.9935467,18.6165416 18.62248,23.9816471 11.9972267,23.9816471 Z M11.9972267,1.5167414 C6.20189333,1.5167414 1.50373333,6.20968701 1.50373333,11.9985882 C1.50373333,17.7874895 6.20189333,22.4804351 11.9972267,22.4804351 C17.79256,22.4804351 22.49072,17.7874895 22.49072,11.9985882 C22.49072,6.20966038 17.79256,1.5167414 11.9972267,1.5167414 Z M20.99448,11.9986415 C20.99448,12.4122619 20.6587467,12.747596 20.2446933,12.747596 L14.1086933,12.747596 C13.79896,13.6183352 12.9752267,14.2454517 11.9972,14.2454517 C10.75504,14.2454517 9.74789333,13.2393962 9.74789333,11.9986415 C9.74789333,11.0217003 10.37576,10.1989079 11.2474133,9.88933185 L11.2474133,3.76032852 C11.2474133,3.3467081 11.58312,3.01137403 11.9972,3.01137403 C12.41128,3.01137403 12.7469867,3.3467081 12.7469867,3.76032852 L12.7469867,9.88930522 C13.3827387,10.1149196 13.8829154,10.6146097 14.1086933,11.249687 L20.2446933,11.249687 C20.6587467,11.249687 20.99448,11.5850211 20.99448,11.9986415 Z M11.9972267,11.249687 C11.5831467,11.249687 11.24744,11.5850211 11.24744,11.9986415 C11.24744,12.4122619 11.5831467,12.747596 11.9972267,12.747596 C12.4113067,12.747596 12.7470133,12.4122619 12.7470133,11.9986415 C12.7470133,11.5850211 12.4113067,11.249687 11.9972267,11.249687 Z M17.2767467,6.75603996 C16.98408,6.46367148 16.98408,5.98955827 17.2767467,5.69700333 C17.5696267,5.40444839 18.0442933,5.40444839 18.33696,5.69700333 C18.62984,5.98955827 18.62984,6.46369811 18.33696,6.75603996 C18.0442933,7.04859489 17.5696267,7.04859489 17.2767467,6.75603996 Z M5.63224,6.70993119 C5.33936,6.41737625 5.33936,5.9432364 5.63224,5.65089456 C5.92512,5.35833962 6.39978667,5.35833962 6.69266667,5.65089456 C6.98536,5.94326304 6.98536,6.41737625 6.69266667,6.70993119 C6.39976,7.00248613 5.92512,7.00248613 5.63224,6.70993119 Z M6.68677333,17.2733674 C6.97946667,17.5657092 6.97946667,18.0398224 6.68677333,18.332404 C6.39389333,18.6249589 5.91922667,18.6249589 5.62634667,18.332404 C5.33365333,18.0398491 5.33365333,17.5657092 5.62634667,17.273394 C5.91922667,16.9808657 6.39389333,16.9808657 6.68677333,17.273394 L6.68677333,17.2733674 Z M11.9972267,19.488 C12.4113067,19.488 12.7470133,19.8233607 12.7470133,20.2369545 C12.7470133,20.6505483 12.4113067,20.985909 11.9972267,20.985909 C11.5831467,20.985909 11.24744,20.6505483 11.24744,20.2369545 C11.24744,19.8233607 11.5831467,19.488 11.9972267,19.488 Z M18.35472,17.2963818 C18.6476,17.5885638 18.6476,18.0628635 18.35472,18.3554184 C18.06184,18.6479734 17.5871733,18.6479734 17.2942933,18.3554184 C17.0016267,18.0628635 17.0016267,17.5885372 17.2942933,17.2963818 C17.5871733,17.0038269 18.06184,17.0038269 18.35472,17.2963818 Z M3.74978667,12.7475427 C3.33570667,12.7475427 3,12.4122087 3,11.9985882 C3,11.5849678 3.33570667,11.2496337 3.74978667,11.2496337 C4.16386667,11.2496337 4.49957333,11.5849678 4.49957333,11.9985882 C4.49957333,12.4122087 4.16384,12.7475427 3.74978667,12.7475427 Z" id="形状"></path>
        </g>
        <g id="创意提案01-copy-4" transform="translate(136.000000, 0.000000)" fill="#303033" fill-rule="nonzero">
            <path d="M16.8221022,1.72954839 L16.7763435,1.70223804 C16.4293031,1.49942603 15.9907192,1.6203337 15.7885769,1.97136374 L15.3919668,2.66562848 C15.1860396,3.02445384 15.3080454,3.48472525 15.658923,3.68753726 L15.7046816,3.71484761 C16.0517221,3.91765962 16.490306,3.79675195 16.6924482,3.44572191 L17.0890584,2.75145717 C17.2949855,2.39263181 17.1729798,1.9323604 16.8221022,1.72954839 Z M5.6973099,2.8022069 L5.28161839,2.08063181 C5.08712436,1.73349944 4.6523515,1.61646274 4.31671813,1.81543048 L4.24806704,1.85440712 C3.90483767,2.05721913 3.78656463,2.50577086 3.98492191,2.85680089 L4.39680237,3.57837597 C4.59510745,3.92161068 5.02606926,4.04254505 5.36170263,3.84357731 L5.43035373,3.80460067 C5.78120519,3.60571301 5.89942603,3.15716129 5.6973099,2.8022069 Z M13.4430849,22.5150701 L8.43178999,22.5150701 C8.07710137,22.5150701 7.74914231,22.7569121 7.68808721,23.1157375 C7.60416581,23.5838042 7.95504338,23.9894283 8.39743834,23.9894283 L13.4240036,23.9894283 C13.7367445,23.9894283 14.0380001,23.7944116 14.1295436,23.4901802 C14.2821161,22.9830834 13.9159683,22.5150701 13.4430849,22.5150701 Z M10.9565319,0.0211968854 L10.8802587,0.0211968854 C10.4836485,0.0211968854 10.1632593,0.348867631 10.1632593,0.754491657 L10.1632593,1.57358843 C10.1632593,1.97921246 10.4836485,2.3068832 10.8802587,2.3068832 L10.9565319,2.3068832 C11.353142,2.3068832 11.6735312,1.97921246 11.6735312,1.57358843 L11.6735312,0.754491657 C11.6735051,0.348814238 11.353142,0.0211968854 10.9565319,0.0211968854 Z M0.377111161,7.73624917 L1.08646229,8.14966852 C1.42969166,8.34858287 1.86446452,8.23157286 2.0627696,7.88446719 L2.08947304,7.83766852 C2.29158917,7.48274082 2.17339444,7.03026474 1.82251687,6.82745273 L1.11697679,6.41010901 C0.773747423,6.21119466 0.338974564,6.32820467 0.140669485,6.67531034 L0.113966036,6.72210901 C-0.0920133482,7.0770901 0.026259696,7.52953949 0.377111161,7.73624917 Z M10.3806458,3.72659399 C6.23889655,3.99571969 2.87896062,7.45153281 2.64249284,11.6913103 C2.45180986,15.1158888 4.24430819,18.1270478 6.95589588,19.6404093 L6.95589588,20.3073904 C6.95589588,20.9158799 7.44023849,21.4151279 8.03901698,21.4151279 L13.8130438,21.4151279 C14.4080113,21.4151279 14.8961649,20.9197775 14.8961649,20.3073904 L14.8961649,19.6404093 C17.4742876,18.2011568 19.2247861,15.4045295 19.2247861,12.1905584 C19.2133268,7.32282981 15.2050426,3.4145673 10.3806458,3.72659399 Z M14.0494594,18.6223982 L13.511736,18.8720623 L13.511736,20.1397108 L8.3250284,20.1397108 L8.3250284,18.8915239 L7.78730501,18.6223982 C5.2206416,17.3157464 3.53874201,14.4606274 3.93540438,11.2466563 C4.33582558,7.9898109 6.92157034,5.38427586 10.1137418,5.02152614 C14.3623048,4.53789544 17.9624673,7.92736819 17.9624673,12.1788654 C17.9624151,15.0067275 16.3644369,17.4444761 14.0494594,18.6223982 Z M20.7197615,6.41010901 L20.0180325,6.81573304 C19.667181,7.02244271 19.5451491,7.47881646 19.7510763,7.83764182 L19.7701577,7.8727208 C19.9722738,8.22375083 20.4108577,8.3447119 20.7579242,8.1418465 L21.4596532,7.73622247 C21.8105047,7.52951279 21.9325366,7.07313904 21.7266094,6.71431368 L21.703717,6.67918131 C21.5053858,6.33207564 21.0668019,6.21119466 20.7197615,6.41010901 Z M15.0639294,10.1038398 C15.0563073,10.1662291 15.0677405,10.2247475 15.0830108,10.2793682 L15.0791997,10.2793682 C15.0791997,10.2832659 15.0830108,10.2832659 15.0830108,10.2832659 C15.0982811,10.3573749 15.1287694,10.4236885 15.1745542,10.4782825 C15.2470164,10.6303982 15.4148331,10.9190389 15.4300512,10.9073192 C15.5215947,11.012663 15.6550597,11.0750523 15.8038211,11.0750523 C16.0936697,11.0750523 16.3301375,10.8293126 16.3301375,10.5251079 C16.3263264,10.3729922 16.2614864,10.2520845 16.2195648,10.1077642 C16.1471027,9.92056952 15.8953646,9.62023582 15.8687134,9.64359511 C15.7962512,9.58510345 15.7123298,9.53825139 15.6207864,9.53825139 C15.3499669,9.53435373 15.09447,9.79181313 15.0639294,10.1038398 Z M15.3080193,8.80885428 C15.3232896,8.62555729 15.2584495,8.46561958 15.1516357,8.35640489 L15.1554468,8.35250723 C14.3164417,7.33059844 13.1379399,6.58950834 11.5895837,6.28914794 C11.5895837,6.29304561 11.5857726,6.29694327 11.5857726,6.30086763 C11.5476621,6.2930723 11.5094994,6.28135261 11.471389,6.28135261 C11.1739183,6.28525028 10.9260435,6.53491435 10.9222324,6.83909232 C10.9222324,7.05362403 11.0595346,7.22525473 11.2540025,7.30715907 C11.2501915,7.31105673 11.2501915,7.31495439 11.2501915,7.32277642 C12.6040798,7.56461846 13.576576,8.20818687 14.2973864,9.07797998 C14.3088457,9.07018465 14.5528834,9.37051835 14.7512406,9.37441602 C15.02963,9.37446941 15.2813158,9.12090768 15.3080193,8.80885428 Z" id="形状"></path>
        </g>
        <g id="设计-copy-3" transform="translate(135.000000, 144.000000)" fill="#303033" fill-rule="nonzero">
            <path d="M7.30999088,22.3416458 C7.17486753,22.3416458 7.0397442,22.2901767 6.9366159,22.1869669 L1.83642275,17.0867738 C1.73736852,16.9877738 1.68174388,16.8534653 1.68174388,16.7133173 C1.68174388,16.5733051 1.73734136,16.4389965 1.83642275,16.3399966 L17.1884441,0.987920968 C17.5253697,0.65099534 17.9842459,0.457830064 18.4473319,0.457830064 C18.8823068,0.457830064 19.2871337,0.622965729 19.5869852,0.922953132 L23.1004637,4.43643159 C23.417698,4.75366588 23.5824262,5.18217663 23.5643645,5.64295401 C23.5467102,6.08811412 23.3590314,6.51141005 23.0354144,6.83494558 L7.68344734,22.1869669 C7.58029187,22.2901767 7.44511422,22.3416458 7.30999088,22.3416458 Z M2.95657487,16.7133173 L7.30999088,21.0668691 L22.2886101,6.08811412 C22.4235976,5.95312657 22.5018198,5.78025019 22.5088815,5.60147998 C22.5154,5.43832704 22.4602642,5.28981359 22.3535236,5.18320873 L18.8401809,1.66978457 C18.739823,1.56929083 18.6002182,1.51396496 18.4473047,1.51396496 C18.2622061,1.51396496 18.0754779,1.59441427 17.9351941,1.73477959 L2.95657487,16.7133173 Z M1.20806526,23.3429165 C0.95406055,23.3429165 0.730040991,23.1590401 0.687534837,22.9002009 C0.640357089,22.6124357 0.835342127,22.340831 1.12318878,22.2937076 L7.22448969,21.2924368 C7.51252648,21.2453134 7.78385959,21.4403256 7.8311188,21.7280908 C7.87829655,22.0158559 7.68331151,22.2874607 7.39546485,22.3347199 L1.29416394,23.3358548 C1.26523806,23.3404721 1.23644797,23.3429165 1.20806526,23.3429165 Z M1.20806526,23.3429165 C0.95406055,23.3429165 0.730040991,23.1590401 0.687534837,22.9002009 C0.640357089,22.6124357 0.835342127,22.340831 1.12318878,22.2937076 L7.22448969,21.2924368 C7.51252648,21.2453134 7.78385959,21.4403256 7.8311188,21.7280908 C7.87829655,22.0158559 7.68331151,22.2874607 7.39546485,22.3347199 L1.29416394,23.3358548 C1.26523806,23.3404721 1.23644797,23.3429165 1.20806526,23.3429165 Z M1.20934181,23.3429165 C1.18087764,23.3429165 1.15216901,23.3404721 1.12318878,23.3358548 C0.835369288,23.2885956 0.640357112,23.0169909 0.687534837,22.7292257 L1.68872411,16.6279248 C1.73592901,16.3401596 2.00745223,16.1451474 2.29527173,16.1924067 C2.58309122,16.2395301 2.7781034,16.5111348 2.73092567,16.7989 L1.72973641,22.9002009 C1.68731176,23.1590401 1.4632922,23.3429165 1.20934181,23.3429165 Z M1.20934181,23.3429165 C1.18087764,23.3429165 1.15216901,23.3404721 1.12318878,23.3358548 C0.835369288,23.2885956 0.640357112,23.0169909 0.687534837,22.7292257 L1.68872411,16.6279248 C1.73592901,16.3401596 2.00745223,16.1451474 2.29527173,16.1924067 C2.58309122,16.2395301 2.7781034,16.5111348 2.73092567,16.7989 L1.72973641,22.9002009 C1.68731176,23.1590401 1.4632922,23.3429165 1.20934181,23.3429165 Z M20.5682659,9.0832893 C20.4331425,9.0832893 20.2980192,9.03176588 20.1948094,8.92861042 L15.0947521,3.82841727 C14.8884683,3.62221499 14.8884683,3.28786958 15.0947521,3.08164013 C15.3010358,2.87543785 15.6353812,2.87543785 15.8415292,3.08164013 L20.9417224,8.18183328 C21.1478703,8.38803557 21.1478703,8.72238097 20.9417224,8.92861042 C20.8385125,9.03173872 20.703525,9.0832893 20.5682659,9.0832893 Z M16.1168006,21.914819 C15.9816772,21.914819 15.8464181,21.8632141 15.7433441,21.7600043 C15.5370603,21.5538563 15.5370603,21.2195109 15.7433441,21.013363 L18.5483417,18.2083654 C18.7544897,18.0020816 19.0888351,18.0020816 19.2951188,18.2083654 C19.5014026,18.4146491 19.5014026,18.7489946 19.2951188,18.9551425 L16.4901212,21.7600043 C16.3870472,21.8632141 16.2519239,21.914819 16.1168006,21.914819 Z M14.2184195,20.0164379 C14.0832961,20.0164379 13.9481728,19.9649688 13.844963,19.861759 C13.6388151,19.6556111 13.6388151,19.3212657 13.8450988,19.1149819 L16.6500964,16.3099843 C16.8562444,16.1038363 17.1905898,16.1038363 17.3968736,16.3099843 C17.6031573,16.5162681 17.6031573,16.8507493 17.3967378,17.0568972 L14.591876,19.861759 C14.488802,19.9649688 14.3536786,20.0164379 14.2184195,20.0164379 Z M18.6667613,23.9999283 C18.2259469,23.9999283 17.8116139,23.8282741 17.4999475,23.5166077 L11.5534613,17.5700943 C11.347259,17.3638106 11.347259,17.0294651 11.5534613,16.8233172 L16.8233802,11.5534526 C16.9223801,11.4543984 17.0566887,11.3987737 17.1968367,11.3987737 C17.3367131,11.3987737 17.4711574,11.4543712 17.5701573,11.5534526 L23.5167794,17.4998845 C23.82831,17.8115509 23.9999641,18.2258839 23.9999641,18.6666983 C23.9999641,19.1075127 23.8283099,19.5218457 23.5166436,19.8335121 L19.8335752,23.5166077 C19.5217729,23.8282741 19.10744,23.9999283 18.6667613,23.9999283 Z M12.6736949,17.1967737 L18.2467518,22.7698306 C18.3590604,22.8820033 18.5081713,22.9439292 18.6667885,22.9439292 C18.8254056,22.9439292 18.9745166,22.8820033 19.0866894,22.7698306 L22.7699207,19.0865992 C22.8820935,18.9744265 22.9438836,18.8253155 22.9438836,18.6666983 C22.9438836,18.5080812 22.8820935,18.3589702 22.7699207,18.2467975 L17.1967009,12.6736319 L12.6736949,17.1967737 Z M2.63670601,8.43469726 C2.50158266,8.43469726 2.36640501,8.38309236 2.26333103,8.28001838 C2.05712874,8.07381609 2.05712874,7.73938921 2.26333103,7.53318692 L5.06824713,4.72827081 C5.27444942,4.52206853 5.60879483,4.52206853 5.8150786,4.72827081 C6.02128088,4.9344731 6.02128088,5.26881851 5.8150786,5.47510228 L3.01008101,8.28001838 C2.90700702,8.38309236 2.77182935,8.43469726 2.63670601,8.43469726 Z M4.5350056,10.3329425 C4.39988226,10.3329425 4.26470461,10.2814191 4.16163063,10.178318 C3.95534686,9.97203421 3.95534686,9.6376888 4.16163063,9.43148652 L6.96654673,6.62648893 C7.17274902,6.42028664 7.50709442,6.42028664 7.71332387,6.62648893 C7.91960764,6.83269122 7.91960764,7.1671181 7.71332387,7.37332039 L4.9083806,10.178318 C4.8052523,10.281392 4.67012895,10.3329425 4.5350056,10.3329425 Z M6.82667031,12.6246072 C6.68660375,12.6246072 6.55229524,12.5689283 6.45321385,12.4700642 L0.506700433,6.52336065 C0.195034045,6.21177574 0.0233798634,5.79736128 0.0233798634,5.35662832 C0.0233798634,4.91589537 0.195034045,4.50156239 0.506700433,4.189896 L4.18985034,0.506718907 C4.50151673,0.195052519 4.91590403,0.0233983376 5.35658267,0.0233983376 C5.35666415,0.0233983376 5.35658267,0.0233983376 5.35658267,0.0233983376 C5.79731562,0.0233983376 6.21173008,0.195052519 6.52339647,0.506718907 L12.4698284,6.45328662 C12.6761121,6.65948891 12.6761121,6.99383431 12.4698284,7.20006376 L7.20004528,12.4700642 C7.10104538,12.5689283 6.96668254,12.6246072 6.82667031,12.6246072 Z M5.35666417,1.07958755 C5.1979927,1.07958755 5.04888171,1.14137762 4.93670899,1.25346889 L1.2534776,4.93670028 C1.14130485,5.04887302 1.07951478,5.19798399 1.07959626,5.35660114 C1.07959626,5.51527261 1.14138633,5.6643836 1.2534776,5.77655632 L6.82664317,11.3497219 L11.3497306,6.82663444 L5.77664652,1.25349605 C5.66447377,1.1413233 5.51528132,1.07958755 5.35666417,1.07958755 Z" id="形状"></path>
        </g>
        <g id="创意提案01-copy-2" transform="translate(70.000000, 0.000000)" fill="#C0A75E" fill-rule="nonzero">
            <path d="M16.8221022,1.72954839 L16.7763435,1.70223804 C16.4293031,1.49942603 15.9907192,1.6203337 15.7885769,1.97136374 L15.3919668,2.66562848 C15.1860396,3.02445384 15.3080454,3.48472525 15.658923,3.68753726 L15.7046816,3.71484761 C16.0517221,3.91765962 16.490306,3.79675195 16.6924482,3.44572191 L17.0890584,2.75145717 C17.2949855,2.39263181 17.1729798,1.9323604 16.8221022,1.72954839 Z M5.6973099,2.8022069 L5.28161839,2.08063181 C5.08712436,1.73349944 4.6523515,1.61646274 4.31671813,1.81543048 L4.24806704,1.85440712 C3.90483767,2.05721913 3.78656463,2.50577086 3.98492191,2.85680089 L4.39680237,3.57837597 C4.59510745,3.92161068 5.02606926,4.04254505 5.36170263,3.84357731 L5.43035373,3.80460067 C5.78120519,3.60571301 5.89942603,3.15716129 5.6973099,2.8022069 Z M13.4430849,22.5150701 L8.43178999,22.5150701 C8.07710137,22.5150701 7.74914231,22.7569121 7.68808721,23.1157375 C7.60416581,23.5838042 7.95504338,23.9894283 8.39743834,23.9894283 L13.4240036,23.9894283 C13.7367445,23.9894283 14.0380001,23.7944116 14.1295436,23.4901802 C14.2821161,22.9830834 13.9159683,22.5150701 13.4430849,22.5150701 Z M10.9565319,0.0211968854 L10.8802587,0.0211968854 C10.4836485,0.0211968854 10.1632593,0.348867631 10.1632593,0.754491657 L10.1632593,1.57358843 C10.1632593,1.97921246 10.4836485,2.3068832 10.8802587,2.3068832 L10.9565319,2.3068832 C11.353142,2.3068832 11.6735312,1.97921246 11.6735312,1.57358843 L11.6735312,0.754491657 C11.6735051,0.348814238 11.353142,0.0211968854 10.9565319,0.0211968854 Z M0.377111161,7.73624917 L1.08646229,8.14966852 C1.42969166,8.34858287 1.86446452,8.23157286 2.0627696,7.88446719 L2.08947304,7.83766852 C2.29158917,7.48274082 2.17339444,7.03026474 1.82251687,6.82745273 L1.11697679,6.41010901 C0.773747423,6.21119466 0.338974564,6.32820467 0.140669485,6.67531034 L0.113966036,6.72210901 C-0.0920133482,7.0770901 0.026259696,7.52953949 0.377111161,7.73624917 Z M10.3806458,3.72659399 C6.23889655,3.99571969 2.87896062,7.45153281 2.64249284,11.6913103 C2.45180986,15.1158888 4.24430819,18.1270478 6.95589588,19.6404093 L6.95589588,20.3073904 C6.95589588,20.9158799 7.44023849,21.4151279 8.03901698,21.4151279 L13.8130438,21.4151279 C14.4080113,21.4151279 14.8961649,20.9197775 14.8961649,20.3073904 L14.8961649,19.6404093 C17.4742876,18.2011568 19.2247861,15.4045295 19.2247861,12.1905584 C19.2133268,7.32282981 15.2050426,3.4145673 10.3806458,3.72659399 Z M14.0494594,18.6223982 L13.511736,18.8720623 L13.511736,20.1397108 L8.3250284,20.1397108 L8.3250284,18.8915239 L7.78730501,18.6223982 C5.2206416,17.3157464 3.53874201,14.4606274 3.93540438,11.2466563 C4.33582558,7.9898109 6.92157034,5.38427586 10.1137418,5.02152614 C14.3623048,4.53789544 17.9624673,7.92736819 17.9624673,12.1788654 C17.9624151,15.0067275 16.3644369,17.4444761 14.0494594,18.6223982 Z M20.7197615,6.41010901 L20.0180325,6.81573304 C19.667181,7.02244271 19.5451491,7.47881646 19.7510763,7.83764182 L19.7701577,7.8727208 C19.9722738,8.22375083 20.4108577,8.3447119 20.7579242,8.1418465 L21.4596532,7.73622247 C21.8105047,7.52951279 21.9325366,7.07313904 21.7266094,6.71431368 L21.703717,6.67918131 C21.5053858,6.33207564 21.0668019,6.21119466 20.7197615,6.41010901 Z M15.0639294,10.1038398 C15.0563073,10.1662291 15.0677405,10.2247475 15.0830108,10.2793682 L15.0791997,10.2793682 C15.0791997,10.2832659 15.0830108,10.2832659 15.0830108,10.2832659 C15.0982811,10.3573749 15.1287694,10.4236885 15.1745542,10.4782825 C15.2470164,10.6303982 15.4148331,10.9190389 15.4300512,10.9073192 C15.5215947,11.012663 15.6550597,11.0750523 15.8038211,11.0750523 C16.0936697,11.0750523 16.3301375,10.8293126 16.3301375,10.5251079 C16.3263264,10.3729922 16.2614864,10.2520845 16.2195648,10.1077642 C16.1471027,9.92056952 15.8953646,9.62023582 15.8687134,9.64359511 C15.7962512,9.58510345 15.7123298,9.53825139 15.6207864,9.53825139 C15.3499669,9.53435373 15.09447,9.79181313 15.0639294,10.1038398 Z M15.3080193,8.80885428 C15.3232896,8.62555729 15.2584495,8.46561958 15.1516357,8.35640489 L15.1554468,8.35250723 C14.3164417,7.33059844 13.1379399,6.58950834 11.5895837,6.28914794 C11.5895837,6.29304561 11.5857726,6.29694327 11.5857726,6.30086763 C11.5476621,6.2930723 11.5094994,6.28135261 11.471389,6.28135261 C11.1739183,6.28525028 10.9260435,6.53491435 10.9222324,6.83909232 C10.9222324,7.05362403 11.0595346,7.22525473 11.2540025,7.30715907 C11.2501915,7.31105673 11.2501915,7.31495439 11.2501915,7.32277642 C12.6040798,7.56461846 13.576576,8.20818687 14.2973864,9.07797998 C14.3088457,9.07018465 14.5528834,9.37051835 14.7512406,9.37441602 C15.02963,9.37446941 15.2813158,9.12090768 15.3080193,8.80885428 Z" id="形状"></path>
        </g>
        <g id="设计-copy" transform="translate(69.000000, 144.000000)" fill="#C0A75E" fill-rule="nonzero">
            <path d="M7.30999088,22.3416458 C7.17486753,22.3416458 7.0397442,22.2901767 6.9366159,22.1869669 L1.83642275,17.0867738 C1.73736852,16.9877738 1.68174388,16.8534653 1.68174388,16.7133173 C1.68174388,16.5733051 1.73734136,16.4389965 1.83642275,16.3399966 L17.1884441,0.987920968 C17.5253697,0.65099534 17.9842459,0.457830064 18.4473319,0.457830064 C18.8823068,0.457830064 19.2871337,0.622965729 19.5869852,0.922953132 L23.1004637,4.43643159 C23.417698,4.75366588 23.5824262,5.18217663 23.5643645,5.64295401 C23.5467102,6.08811412 23.3590314,6.51141005 23.0354144,6.83494558 L7.68344734,22.1869669 C7.58029187,22.2901767 7.44511422,22.3416458 7.30999088,22.3416458 Z M2.95657487,16.7133173 L7.30999088,21.0668691 L22.2886101,6.08811412 C22.4235976,5.95312657 22.5018198,5.78025019 22.5088815,5.60147998 C22.5154,5.43832704 22.4602642,5.28981359 22.3535236,5.18320873 L18.8401809,1.66978457 C18.739823,1.56929083 18.6002182,1.51396496 18.4473047,1.51396496 C18.2622061,1.51396496 18.0754779,1.59441427 17.9351941,1.73477959 L2.95657487,16.7133173 Z M1.20806526,23.3429165 C0.95406055,23.3429165 0.730040991,23.1590401 0.687534837,22.9002009 C0.640357089,22.6124357 0.835342127,22.340831 1.12318878,22.2937076 L7.22448969,21.2924368 C7.51252648,21.2453134 7.78385959,21.4403256 7.8311188,21.7280908 C7.87829655,22.0158559 7.68331151,22.2874607 7.39546485,22.3347199 L1.29416394,23.3358548 C1.26523806,23.3404721 1.23644797,23.3429165 1.20806526,23.3429165 Z M1.20806526,23.3429165 C0.95406055,23.3429165 0.730040991,23.1590401 0.687534837,22.9002009 C0.640357089,22.6124357 0.835342127,22.340831 1.12318878,22.2937076 L7.22448969,21.2924368 C7.51252648,21.2453134 7.78385959,21.4403256 7.8311188,21.7280908 C7.87829655,22.0158559 7.68331151,22.2874607 7.39546485,22.3347199 L1.29416394,23.3358548 C1.26523806,23.3404721 1.23644797,23.3429165 1.20806526,23.3429165 Z M1.20934181,23.3429165 C1.18087764,23.3429165 1.15216901,23.3404721 1.12318878,23.3358548 C0.835369288,23.2885956 0.640357112,23.0169909 0.687534837,22.7292257 L1.68872411,16.6279248 C1.73592901,16.3401596 2.00745223,16.1451474 2.29527173,16.1924067 C2.58309122,16.2395301 2.7781034,16.5111348 2.73092567,16.7989 L1.72973641,22.9002009 C1.68731176,23.1590401 1.4632922,23.3429165 1.20934181,23.3429165 Z M1.20934181,23.3429165 C1.18087764,23.3429165 1.15216901,23.3404721 1.12318878,23.3358548 C0.835369288,23.2885956 0.640357112,23.0169909 0.687534837,22.7292257 L1.68872411,16.6279248 C1.73592901,16.3401596 2.00745223,16.1451474 2.29527173,16.1924067 C2.58309122,16.2395301 2.7781034,16.5111348 2.73092567,16.7989 L1.72973641,22.9002009 C1.68731176,23.1590401 1.4632922,23.3429165 1.20934181,23.3429165 Z M20.5682659,9.0832893 C20.4331425,9.0832893 20.2980192,9.03176588 20.1948094,8.92861042 L15.0947521,3.82841727 C14.8884683,3.62221499 14.8884683,3.28786958 15.0947521,3.08164013 C15.3010358,2.87543785 15.6353812,2.87543785 15.8415292,3.08164013 L20.9417224,8.18183328 C21.1478703,8.38803557 21.1478703,8.72238097 20.9417224,8.92861042 C20.8385125,9.03173872 20.703525,9.0832893 20.5682659,9.0832893 Z M16.1168006,21.914819 C15.9816772,21.914819 15.8464181,21.8632141 15.7433441,21.7600043 C15.5370603,21.5538563 15.5370603,21.2195109 15.7433441,21.013363 L18.5483417,18.2083654 C18.7544897,18.0020816 19.0888351,18.0020816 19.2951188,18.2083654 C19.5014026,18.4146491 19.5014026,18.7489946 19.2951188,18.9551425 L16.4901212,21.7600043 C16.3870472,21.8632141 16.2519239,21.914819 16.1168006,21.914819 Z M14.2184195,20.0164379 C14.0832961,20.0164379 13.9481728,19.9649688 13.844963,19.861759 C13.6388151,19.6556111 13.6388151,19.3212657 13.8450988,19.1149819 L16.6500964,16.3099843 C16.8562444,16.1038363 17.1905898,16.1038363 17.3968736,16.3099843 C17.6031573,16.5162681 17.6031573,16.8507493 17.3967378,17.0568972 L14.591876,19.861759 C14.488802,19.9649688 14.3536786,20.0164379 14.2184195,20.0164379 Z M18.6667613,23.9999283 C18.2259469,23.9999283 17.8116139,23.8282741 17.4999475,23.5166077 L11.5534613,17.5700943 C11.347259,17.3638106 11.347259,17.0294651 11.5534613,16.8233172 L16.8233802,11.5534526 C16.9223801,11.4543984 17.0566887,11.3987737 17.1968367,11.3987737 C17.3367131,11.3987737 17.4711574,11.4543712 17.5701573,11.5534526 L23.5167794,17.4998845 C23.82831,17.8115509 23.9999641,18.2258839 23.9999641,18.6666983 C23.9999641,19.1075127 23.8283099,19.5218457 23.5166436,19.8335121 L19.8335752,23.5166077 C19.5217729,23.8282741 19.10744,23.9999283 18.6667613,23.9999283 Z M12.6736949,17.1967737 L18.2467518,22.7698306 C18.3590604,22.8820033 18.5081713,22.9439292 18.6667885,22.9439292 C18.8254056,22.9439292 18.9745166,22.8820033 19.0866894,22.7698306 L22.7699207,19.0865992 C22.8820935,18.9744265 22.9438836,18.8253155 22.9438836,18.6666983 C22.9438836,18.5080812 22.8820935,18.3589702 22.7699207,18.2467975 L17.1967009,12.6736319 L12.6736949,17.1967737 Z M2.63670601,8.43469726 C2.50158266,8.43469726 2.36640501,8.38309236 2.26333103,8.28001838 C2.05712874,8.07381609 2.05712874,7.73938921 2.26333103,7.53318692 L5.06824713,4.72827081 C5.27444942,4.52206853 5.60879483,4.52206853 5.8150786,4.72827081 C6.02128088,4.9344731 6.02128088,5.26881851 5.8150786,5.47510228 L3.01008101,8.28001838 C2.90700702,8.38309236 2.77182935,8.43469726 2.63670601,8.43469726 Z M4.5350056,10.3329425 C4.39988226,10.3329425 4.26470461,10.2814191 4.16163063,10.178318 C3.95534686,9.97203421 3.95534686,9.6376888 4.16163063,9.43148652 L6.96654673,6.62648893 C7.17274902,6.42028664 7.50709442,6.42028664 7.71332387,6.62648893 C7.91960764,6.83269122 7.91960764,7.1671181 7.71332387,7.37332039 L4.9083806,10.178318 C4.8052523,10.281392 4.67012895,10.3329425 4.5350056,10.3329425 Z M6.82667031,12.6246072 C6.68660375,12.6246072 6.55229524,12.5689283 6.45321385,12.4700642 L0.506700433,6.52336065 C0.195034045,6.21177574 0.0233798634,5.79736128 0.0233798634,5.35662832 C0.0233798634,4.91589537 0.195034045,4.50156239 0.506700433,4.189896 L4.18985034,0.506718907 C4.50151673,0.195052519 4.91590403,0.0233983376 5.35658267,0.0233983376 C5.35666415,0.0233983376 5.35658267,0.0233983376 5.35658267,0.0233983376 C5.79731562,0.0233983376 6.21173008,0.195052519 6.52339647,0.506718907 L12.4698284,6.45328662 C12.6761121,6.65948891 12.6761121,6.99383431 12.4698284,7.20006376 L7.20004528,12.4700642 C7.10104538,12.5689283 6.96668254,12.6246072 6.82667031,12.6246072 Z M5.35666417,1.07958755 C5.1979927,1.07958755 5.04888171,1.14137762 4.93670899,1.25346889 L1.2534776,4.93670028 C1.14130485,5.04887302 1.07951478,5.19798399 1.07959626,5.35660114 C1.07959626,5.51527261 1.14138633,5.6643836 1.2534776,5.77655632 L6.82664317,11.3497219 L11.3497306,6.82663444 L5.77664652,1.25349605 C5.66447377,1.1413233 5.51528132,1.07958755 5.35666417,1.07958755 Z" id="形状"></path>
        </g>
        <g id="设计初稿-copy-2" transform="translate(69.000000, 98.000000)" fill="#C0A75E" fill-rule="nonzero">
            <path d="M21.2359688,16.9369688 C21.1043438,16.8824063 20.9528438,16.9125469 20.8520625,17.0132813 L17.0024063,20.8629375 C16.9016719,20.9637188 16.8715313,21.1152188 16.9260938,21.2468438 C16.9805625,21.3785156 17.1090938,21.4642969 17.2515469,21.4642969 L21.1012031,21.4642969 C21.2957813,21.4642969 21.4534688,21.3066094 21.4534688,21.1120313 L21.4534688,17.262375 C21.4534219,17.1199219 21.3675938,16.9914844 21.2359688,16.9369688 Z M18.1018594,20.7598125 L20.7488437,18.1128281 L20.7488437,20.7598125 L18.1018594,20.7598125 Z" id="形状"></path>
            <path d="M23.7825469,11.2906406 C23.6509219,11.2360781 23.4994219,11.2662187 23.3986406,11.3669531 L22.343625,12.4219687 L22.343625,5.24864062 C22.343625,5.0540625 22.1858906,4.896375 21.9913594,4.896375 L19.28475,4.896375 L20.26725,3.913875 C20.2673906,3.91373437 20.2675312,3.91354688 20.2676719,3.91340625 L21.2143594,2.96671875 C21.4171875,2.76389063 21.5288906,2.49407812 21.5288906,2.20720312 C21.5288906,1.92032812 21.4171875,1.65060937 21.2143594,1.4476875 L20.1196406,0.35296875 C19.9168125,0.150140625 19.647,0.0384375 19.360125,0.0384375 C19.07325,0.0384375 18.8034844,0.150140625 18.6006094,0.35296875 L17.6534531,1.300125 L16.5089531,2.444625 L14.05725,4.89632812 L3.1228125,4.89632812 L3.1228125,1.41140625 C3.1228125,1.21682812 2.96507813,1.05914062 2.77054687,1.05914062 C1.24289063,1.05923437 0,2.30203125 0,3.82978125 L0,18.791625 C0,18.8176406 0.003,18.8429531 0.00834375,18.8673281 C0.057,19.5155625 0.337453125,20.1178594 0.80615625,20.5750781 C1.30715625,21.0637031 1.96851562,21.3328125 2.66845313,21.3328125 L13.4327344,21.3328125 L11.4054375,23.3601094 C11.3047031,23.4608906 11.2745625,23.6123438 11.3290781,23.7440156 C11.3835938,23.8756406 11.5120781,23.9614688 11.6545313,23.9614688 L23.6477344,23.9614688 C23.8422656,23.9614688 24,23.8037813 24,23.6092031 L24,11.6160937 C24,11.4736406 23.914125,11.3451562 23.7825469,11.2906406 Z M19.0988906,0.851203125 C19.2428906,0.707109375 19.4775,0.707109375 19.6215,0.851203125 L20.7162656,1.94596875 C20.8603594,2.09001563 20.8603594,2.32453125 20.7162656,2.468625 L20.01825,3.1666875 L18.4007813,1.54926563 L19.0988906,0.851203125 Z M17.9025938,2.04745312 L19.5200156,3.66482812 L18.8736563,4.3111875 L17.2563281,2.6938125 L17.9025938,2.04745312 Z M23.2955625,15.5743125 L22.6456406,15.5743125 C22.4510625,15.5743125 22.293375,15.732 22.293375,15.9265781 C22.293375,16.1211563 22.4510625,16.2788438 22.6456406,16.2788438 L23.2955625,16.2788438 L23.2955625,17.340375 L22.6456406,17.340375 C22.4510625,17.340375 22.293375,17.4980625 22.293375,17.6926406 C22.293375,17.8872188 22.4510625,18.0449063 22.6456406,18.0449063 L23.2955625,18.0449063 L23.2955625,19.1063906 L22.6456406,19.1063906 C22.4510625,19.1063906 22.293375,19.2640781 22.293375,19.4586563 C22.293375,19.6532344 22.4510625,19.8109219 22.6456406,19.8109219 L23.2955625,19.8109219 L23.2955625,20.8724531 L22.6456406,20.8724531 C22.4510625,20.8724531 22.293375,21.0301875 22.293375,21.2247188 C22.293375,21.4192969 22.4510625,21.5769844 22.6456406,21.5769844 L23.2955625,21.5769844 L23.2955625,23.2570781 L12.5049375,23.2570781 L16.063125,19.6989375 C16.2007031,19.5613125 16.2007031,19.3383281 16.063125,19.20075 C16.0473281,19.1849531 16.0303594,19.1712656 16.0125938,19.1590781 C15.8754375,19.0651406 15.6867188,19.0789688 15.5648906,19.20075 L14.1372656,20.628375 L2.6685,20.628375 C1.600125,20.628375 0.7400625,19.7942813 0.70621875,18.7278281 C0.708234375,18.6608906 0.7134375,18.5945156 0.72178125,18.5288906 C0.721828125,18.5285156 0.721875,18.5281406 0.721921875,18.5277656 C0.725859375,18.4965938 0.73059375,18.4655625 0.735984375,18.4347188 C0.73659375,18.4312031 0.73725,18.4276875 0.737859375,18.4241719 C0.74278125,18.3966563 0.7483125,18.3692813 0.754359375,18.342 C0.756046875,18.3344063 0.757828125,18.3268125 0.759609375,18.3192656 C0.764953125,18.2962031 0.77071875,18.2732813 0.77690625,18.2504531 C0.78028125,18.2380781 0.783796875,18.2258438 0.78740625,18.2135156 C0.7925625,18.1956094 0.79790625,18.17775 0.803578125,18.1600781 C0.80925,18.1424063 0.815296875,18.1249219 0.8214375,18.1074375 C0.825703125,18.0952031 0.829921875,18.0829688 0.834515625,18.0708281 C0.84309375,18.0477656 0.8521875,18.0249375 0.8615625,18.0022969 C0.864234375,17.9957813 0.866859375,17.9891719 0.869625,17.9826563 C0.881671875,17.9545313 0.8941875,17.9267344 0.90740625,17.8992656 C0.90796875,17.8980938 0.908484375,17.8969219 0.909046875,17.89575 C1.18457812,17.3255625 1.7145,16.9004531 2.35045312,16.7685469 C2.35223438,16.7681719 2.35401562,16.76775 2.35579687,16.767375 C2.38495312,16.7614219 2.41439062,16.7563125 2.44401562,16.7515781 C2.4489375,16.7507813 2.45385937,16.7497969 2.458875,16.7490469 C2.48564062,16.7449688 2.5126875,16.7417813 2.53973437,16.7387344 C2.54732812,16.7378906 2.554875,16.7367188 2.56251562,16.7359688 C2.588625,16.7333438 2.61496875,16.7316094 2.6413125,16.7299688 C2.64965625,16.7294531 2.658,16.7285625 2.66634375,16.7281406 C2.70084375,16.7264063 2.735625,16.7255156 2.77054687,16.7255156 C2.96507812,16.7255156 3.1228125,16.5678281 3.1228125,16.37325 L3.1228125,13.8190781 C3.1228125,13.6245 2.96507812,13.4668125 2.77054687,13.4668125 C2.57601562,13.4668125 2.41828125,13.6245 2.41828125,13.8190781 L2.41828125,16.0431563 C1.8234375,16.1183906 1.27129687,16.3837031 0.835921875,16.8088594 C0.790125,16.8535781 0.74671875,16.9000781 0.7044375,16.9473281 L0.7044375,3.82978125 C0.7044375,2.81067187 1.44628125,1.9614375 2.41823437,1.79371875 L2.41823437,5.24864063 L2.41823437,12.4100625 L2.41823437,12.4101094 C2.41823437,12.6046406 2.57596875,12.762375 2.7705,12.762375 C2.96503125,12.762375 3.12276562,12.6046406 3.12276562,12.4101094 L3.12276562,12.4100625 L3.12276562,5.60090625 L13.3527656,5.60090625 L11.4053906,7.54828125 C11.2678125,7.68590625 11.2678125,7.90889063 11.4053906,8.04646875 C11.5429688,8.184 11.766,8.184 11.9035313,8.04646875 L14.4522656,5.49773438 C14.4523594,5.49764063 14.4524062,5.49754688 14.4525,5.4975 L16.7580469,3.19195313 L18.375375,4.809375 L18.185625,4.999125 C18.1854844,4.99926563 18.1852969,4.99940625 18.1851563,4.99954688 L11.0822813,12.1025156 L9.46490625,10.4851406 L10.8649688,9.08507813 C11.0025469,8.94745313 11.0025469,8.72446875 10.8649688,8.58689063 C10.7273906,8.44935938 10.5043594,8.44935938 10.3668281,8.58689063 L8.717625,10.2360469 C8.7088125,10.2448594 8.7005625,10.2541875 8.69282813,10.26375 C8.69025,10.2669375 8.68795312,10.2703594 8.68551563,10.2736875 C8.68054688,10.2802969 8.67567188,10.2869531 8.671125,10.2938906 C8.66854688,10.2979219 8.66620313,10.3020469 8.66376562,10.3062188 C8.659875,10.3127813 8.656125,10.3194375 8.65270313,10.3262344 C8.65045313,10.3306406 8.6484375,10.3350938 8.646375,10.3396875 C8.64323438,10.3465781 8.64032813,10.3536094 8.63765625,10.3606406 C8.63671875,10.363125 8.6355,10.3654688 8.63460938,10.3679531 L7.9483125,12.3120938 L7.48040625,13.6376719 C7.47421875,13.6552969 7.46976563,13.6732031 7.4664375,13.69125 L6.2949375,13.69125 C6.10040625,13.69125 5.94267188,13.8489375 5.94267188,14.0435156 C5.94267188,14.2380938 6.10040625,14.3957813 6.2949375,14.3957813 L16.0502813,14.3957813 C16.2448594,14.3957813 16.4025469,14.2380938 16.4025469,14.0435156 C16.4025469,13.8489375 16.2448594,13.69125 16.0502813,13.69125 L9.05123437,13.69125 L11.1995156,12.9329063 C11.2012969,12.93225 11.2029844,12.9313594 11.2047656,12.9307031 C11.2131094,12.9276094 11.2213125,12.9241406 11.2294219,12.9204375 C11.2326563,12.9189375 11.2358906,12.9175313 11.2390313,12.9159844 C11.2474688,12.9117656 11.2557656,12.907125 11.2639219,12.9021563 C11.2665469,12.9005625 11.2692656,12.8991094 11.2718438,12.8974688 C11.2803281,12.8920313 11.2885781,12.8860781 11.2966875,12.8797969 C11.2987031,12.87825 11.3008125,12.8768906 11.3027813,12.8752969 C11.3125781,12.8674219 11.3221875,12.8589375 11.3312813,12.8498438 L18.5802188,5.60095312 L21.6390469,5.60095312 L21.6390469,13.1265469 L16.6001719,18.1654688 C16.4625938,18.3030938 16.4625938,18.5260781 16.6001719,18.6636563 C16.60875,18.6722344 16.6177031,18.6802969 16.6269375,18.6878438 C16.6915313,18.7404844 16.7704219,18.7668281 16.8492656,18.7668281 C16.9281094,18.7668281 17.0070469,18.7404844 17.0715938,18.6878438 C17.0808281,18.6803438 17.0897813,18.6722344 17.0983594,18.6636563 C17.0985,18.6635156 17.0983594,18.6636563 17.0985,18.6635156 L23.2955625,12.4664063 L23.2955625,15.5743125 Z M10.4379844,12.4545 L9.42895313,12.8107031 L8.75667188,12.1384219 L9.112875,11.1293906 L10.4379844,12.4545 Z" id="形状"></path>
        </g>
        <g id="时间-copy-3" transform="translate(69.000000, 48.000000)" fill="#C0A75E" fill-rule="nonzero">
            <path d="M11.9972267,23.9816471 C5.37176,23.9816471 0.000906666667,18.6165416 0.000906666667,11.9986415 C0.000906666667,5.38071476 5.37176,0.01563596 11.9972267,0.01563596 C18.62248,0.01563596 23.9935467,5.38071476 23.9935467,11.9986415 C23.9935467,18.6165416 18.62248,23.9816471 11.9972267,23.9816471 Z M11.9972267,1.5167414 C6.20189333,1.5167414 1.50373333,6.20968701 1.50373333,11.9985882 C1.50373333,17.7874895 6.20189333,22.4804351 11.9972267,22.4804351 C17.79256,22.4804351 22.49072,17.7874895 22.49072,11.9985882 C22.49072,6.20966038 17.79256,1.5167414 11.9972267,1.5167414 Z M20.99448,11.9986415 C20.99448,12.4122619 20.6587467,12.747596 20.2446933,12.747596 L14.1086933,12.747596 C13.79896,13.6183352 12.9752267,14.2454517 11.9972,14.2454517 C10.75504,14.2454517 9.74789333,13.2393962 9.74789333,11.9986415 C9.74789333,11.0217003 10.37576,10.1989079 11.2474133,9.88933185 L11.2474133,3.76032852 C11.2474133,3.3467081 11.58312,3.01137403 11.9972,3.01137403 C12.41128,3.01137403 12.7469867,3.3467081 12.7469867,3.76032852 L12.7469867,9.88930522 C13.3827387,10.1149196 13.8829154,10.6146097 14.1086933,11.249687 L20.2446933,11.249687 C20.6587467,11.249687 20.99448,11.5850211 20.99448,11.9986415 Z M11.9972267,11.249687 C11.5831467,11.249687 11.24744,11.5850211 11.24744,11.9986415 C11.24744,12.4122619 11.5831467,12.747596 11.9972267,12.747596 C12.4113067,12.747596 12.7470133,12.4122619 12.7470133,11.9986415 C12.7470133,11.5850211 12.4113067,11.249687 11.9972267,11.249687 Z M17.2767467,6.75603996 C16.98408,6.46367148 16.98408,5.98955827 17.2767467,5.69700333 C17.5696267,5.40444839 18.0442933,5.40444839 18.33696,5.69700333 C18.62984,5.98955827 18.62984,6.46369811 18.33696,6.75603996 C18.0442933,7.04859489 17.5696267,7.04859489 17.2767467,6.75603996 Z M5.63224,6.70993119 C5.33936,6.41737625 5.33936,5.9432364 5.63224,5.65089456 C5.92512,5.35833962 6.39978667,5.35833962 6.69266667,5.65089456 C6.98536,5.94326304 6.98536,6.41737625 6.69266667,6.70993119 C6.39976,7.00248613 5.92512,7.00248613 5.63224,6.70993119 Z M6.68677333,17.2733674 C6.97946667,17.5657092 6.97946667,18.0398224 6.68677333,18.332404 C6.39389333,18.6249589 5.91922667,18.6249589 5.62634667,18.332404 C5.33365333,18.0398491 5.33365333,17.5657092 5.62634667,17.273394 C5.91922667,16.9808657 6.39389333,16.9808657 6.68677333,17.273394 L6.68677333,17.2733674 Z M11.9972267,19.488 C12.4113067,19.488 12.7470133,19.8233607 12.7470133,20.2369545 C12.7470133,20.6505483 12.4113067,20.985909 11.9972267,20.985909 C11.5831467,20.985909 11.24744,20.6505483 11.24744,20.2369545 C11.24744,19.8233607 11.5831467,19.488 11.9972267,19.488 Z M18.35472,17.2963818 C18.6476,17.5885638 18.6476,18.0628635 18.35472,18.3554184 C18.06184,18.6479734 17.5871733,18.6479734 17.2942933,18.3554184 C17.0016267,18.0628635 17.0016267,17.5885372 17.2942933,17.2963818 C17.5871733,17.0038269 18.06184,17.0038269 18.35472,17.2963818 Z M3.74978667,12.7475427 C3.33570667,12.7475427 3,12.4122087 3,11.9985882 C3,11.5849678 3.33570667,11.2496337 3.74978667,11.2496337 C4.16386667,11.2496337 4.49957333,11.5849678 4.49957333,11.9985882 C4.49957333,12.4122087 4.16384,12.7475427 3.74978667,12.7475427 Z" id="形状"></path>
        </g>
        <g id="设计初稿-copy-4" transform="translate(135.000000, 98.000000)" fill="#303033" fill-rule="nonzero">
            <path d="M21.2359688,16.9369688 C21.1043438,16.8824063 20.9528438,16.9125469 20.8520625,17.0132813 L17.0024063,20.8629375 C16.9016719,20.9637188 16.8715313,21.1152188 16.9260938,21.2468438 C16.9805625,21.3785156 17.1090938,21.4642969 17.2515469,21.4642969 L21.1012031,21.4642969 C21.2957813,21.4642969 21.4534688,21.3066094 21.4534688,21.1120313 L21.4534688,17.262375 C21.4534219,17.1199219 21.3675938,16.9914844 21.2359688,16.9369688 Z M18.1018594,20.7598125 L20.7488437,18.1128281 L20.7488437,20.7598125 L18.1018594,20.7598125 Z" id="形状"></path>
            <path d="M23.7825469,11.2906406 C23.6509219,11.2360781 23.4994219,11.2662187 23.3986406,11.3669531 L22.343625,12.4219687 L22.343625,5.24864062 C22.343625,5.0540625 22.1858906,4.896375 21.9913594,4.896375 L19.28475,4.896375 L20.26725,3.913875 C20.2673906,3.91373437 20.2675312,3.91354688 20.2676719,3.91340625 L21.2143594,2.96671875 C21.4171875,2.76389063 21.5288906,2.49407812 21.5288906,2.20720312 C21.5288906,1.92032812 21.4171875,1.65060937 21.2143594,1.4476875 L20.1196406,0.35296875 C19.9168125,0.150140625 19.647,0.0384375 19.360125,0.0384375 C19.07325,0.0384375 18.8034844,0.150140625 18.6006094,0.35296875 L17.6534531,1.300125 L16.5089531,2.444625 L14.05725,4.89632812 L3.1228125,4.89632812 L3.1228125,1.41140625 C3.1228125,1.21682812 2.96507813,1.05914062 2.77054687,1.05914062 C1.24289063,1.05923437 0,2.30203125 0,3.82978125 L0,18.791625 C0,18.8176406 0.003,18.8429531 0.00834375,18.8673281 C0.057,19.5155625 0.337453125,20.1178594 0.80615625,20.5750781 C1.30715625,21.0637031 1.96851562,21.3328125 2.66845313,21.3328125 L13.4327344,21.3328125 L11.4054375,23.3601094 C11.3047031,23.4608906 11.2745625,23.6123438 11.3290781,23.7440156 C11.3835938,23.8756406 11.5120781,23.9614688 11.6545313,23.9614688 L23.6477344,23.9614688 C23.8422656,23.9614688 24,23.8037813 24,23.6092031 L24,11.6160937 C24,11.4736406 23.914125,11.3451562 23.7825469,11.2906406 Z M19.0988906,0.851203125 C19.2428906,0.707109375 19.4775,0.707109375 19.6215,0.851203125 L20.7162656,1.94596875 C20.8603594,2.09001563 20.8603594,2.32453125 20.7162656,2.468625 L20.01825,3.1666875 L18.4007813,1.54926563 L19.0988906,0.851203125 Z M17.9025938,2.04745312 L19.5200156,3.66482812 L18.8736563,4.3111875 L17.2563281,2.6938125 L17.9025938,2.04745312 Z M23.2955625,15.5743125 L22.6456406,15.5743125 C22.4510625,15.5743125 22.293375,15.732 22.293375,15.9265781 C22.293375,16.1211563 22.4510625,16.2788438 22.6456406,16.2788438 L23.2955625,16.2788438 L23.2955625,17.340375 L22.6456406,17.340375 C22.4510625,17.340375 22.293375,17.4980625 22.293375,17.6926406 C22.293375,17.8872188 22.4510625,18.0449063 22.6456406,18.0449063 L23.2955625,18.0449063 L23.2955625,19.1063906 L22.6456406,19.1063906 C22.4510625,19.1063906 22.293375,19.2640781 22.293375,19.4586563 C22.293375,19.6532344 22.4510625,19.8109219 22.6456406,19.8109219 L23.2955625,19.8109219 L23.2955625,20.8724531 L22.6456406,20.8724531 C22.4510625,20.8724531 22.293375,21.0301875 22.293375,21.2247188 C22.293375,21.4192969 22.4510625,21.5769844 22.6456406,21.5769844 L23.2955625,21.5769844 L23.2955625,23.2570781 L12.5049375,23.2570781 L16.063125,19.6989375 C16.2007031,19.5613125 16.2007031,19.3383281 16.063125,19.20075 C16.0473281,19.1849531 16.0303594,19.1712656 16.0125938,19.1590781 C15.8754375,19.0651406 15.6867188,19.0789688 15.5648906,19.20075 L14.1372656,20.628375 L2.6685,20.628375 C1.600125,20.628375 0.7400625,19.7942813 0.70621875,18.7278281 C0.708234375,18.6608906 0.7134375,18.5945156 0.72178125,18.5288906 C0.721828125,18.5285156 0.721875,18.5281406 0.721921875,18.5277656 C0.725859375,18.4965938 0.73059375,18.4655625 0.735984375,18.4347188 C0.73659375,18.4312031 0.73725,18.4276875 0.737859375,18.4241719 C0.74278125,18.3966563 0.7483125,18.3692813 0.754359375,18.342 C0.756046875,18.3344063 0.757828125,18.3268125 0.759609375,18.3192656 C0.764953125,18.2962031 0.77071875,18.2732813 0.77690625,18.2504531 C0.78028125,18.2380781 0.783796875,18.2258438 0.78740625,18.2135156 C0.7925625,18.1956094 0.79790625,18.17775 0.803578125,18.1600781 C0.80925,18.1424063 0.815296875,18.1249219 0.8214375,18.1074375 C0.825703125,18.0952031 0.829921875,18.0829688 0.834515625,18.0708281 C0.84309375,18.0477656 0.8521875,18.0249375 0.8615625,18.0022969 C0.864234375,17.9957813 0.866859375,17.9891719 0.869625,17.9826563 C0.881671875,17.9545313 0.8941875,17.9267344 0.90740625,17.8992656 C0.90796875,17.8980938 0.908484375,17.8969219 0.909046875,17.89575 C1.18457812,17.3255625 1.7145,16.9004531 2.35045312,16.7685469 C2.35223438,16.7681719 2.35401562,16.76775 2.35579687,16.767375 C2.38495312,16.7614219 2.41439062,16.7563125 2.44401562,16.7515781 C2.4489375,16.7507813 2.45385937,16.7497969 2.458875,16.7490469 C2.48564062,16.7449688 2.5126875,16.7417813 2.53973437,16.7387344 C2.54732812,16.7378906 2.554875,16.7367188 2.56251562,16.7359688 C2.588625,16.7333438 2.61496875,16.7316094 2.6413125,16.7299688 C2.64965625,16.7294531 2.658,16.7285625 2.66634375,16.7281406 C2.70084375,16.7264063 2.735625,16.7255156 2.77054687,16.7255156 C2.96507812,16.7255156 3.1228125,16.5678281 3.1228125,16.37325 L3.1228125,13.8190781 C3.1228125,13.6245 2.96507812,13.4668125 2.77054687,13.4668125 C2.57601562,13.4668125 2.41828125,13.6245 2.41828125,13.8190781 L2.41828125,16.0431563 C1.8234375,16.1183906 1.27129687,16.3837031 0.835921875,16.8088594 C0.790125,16.8535781 0.74671875,16.9000781 0.7044375,16.9473281 L0.7044375,3.82978125 C0.7044375,2.81067187 1.44628125,1.9614375 2.41823437,1.79371875 L2.41823437,5.24864063 L2.41823437,12.4100625 L2.41823437,12.4101094 C2.41823437,12.6046406 2.57596875,12.762375 2.7705,12.762375 C2.96503125,12.762375 3.12276562,12.6046406 3.12276562,12.4101094 L3.12276562,12.4100625 L3.12276562,5.60090625 L13.3527656,5.60090625 L11.4053906,7.54828125 C11.2678125,7.68590625 11.2678125,7.90889063 11.4053906,8.04646875 C11.5429688,8.184 11.766,8.184 11.9035313,8.04646875 L14.4522656,5.49773438 C14.4523594,5.49764063 14.4524062,5.49754688 14.4525,5.4975 L16.7580469,3.19195313 L18.375375,4.809375 L18.185625,4.999125 C18.1854844,4.99926563 18.1852969,4.99940625 18.1851563,4.99954688 L11.0822813,12.1025156 L9.46490625,10.4851406 L10.8649688,9.08507813 C11.0025469,8.94745313 11.0025469,8.72446875 10.8649688,8.58689063 C10.7273906,8.44935938 10.5043594,8.44935938 10.3668281,8.58689063 L8.717625,10.2360469 C8.7088125,10.2448594 8.7005625,10.2541875 8.69282813,10.26375 C8.69025,10.2669375 8.68795312,10.2703594 8.68551563,10.2736875 C8.68054688,10.2802969 8.67567188,10.2869531 8.671125,10.2938906 C8.66854688,10.2979219 8.66620313,10.3020469 8.66376562,10.3062188 C8.659875,10.3127813 8.656125,10.3194375 8.65270313,10.3262344 C8.65045313,10.3306406 8.6484375,10.3350938 8.646375,10.3396875 C8.64323438,10.3465781 8.64032813,10.3536094 8.63765625,10.3606406 C8.63671875,10.363125 8.6355,10.3654688 8.63460938,10.3679531 L7.9483125,12.3120938 L7.48040625,13.6376719 C7.47421875,13.6552969 7.46976563,13.6732031 7.4664375,13.69125 L6.2949375,13.69125 C6.10040625,13.69125 5.94267188,13.8489375 5.94267188,14.0435156 C5.94267188,14.2380938 6.10040625,14.3957813 6.2949375,14.3957813 L16.0502813,14.3957813 C16.2448594,14.3957813 16.4025469,14.2380938 16.4025469,14.0435156 C16.4025469,13.8489375 16.2448594,13.69125 16.0502813,13.69125 L9.05123437,13.69125 L11.1995156,12.9329063 C11.2012969,12.93225 11.2029844,12.9313594 11.2047656,12.9307031 C11.2131094,12.9276094 11.2213125,12.9241406 11.2294219,12.9204375 C11.2326563,12.9189375 11.2358906,12.9175313 11.2390313,12.9159844 C11.2474688,12.9117656 11.2557656,12.907125 11.2639219,12.9021563 C11.2665469,12.9005625 11.2692656,12.8991094 11.2718438,12.8974688 C11.2803281,12.8920313 11.2885781,12.8860781 11.2966875,12.8797969 C11.2987031,12.87825 11.3008125,12.8768906 11.3027813,12.8752969 C11.3125781,12.8674219 11.3221875,12.8589375 11.3312813,12.8498438 L18.5802188,5.60095312 L21.6390469,5.60095312 L21.6390469,13.1265469 L16.6001719,18.1654688 C16.4625938,18.3030938 16.4625938,18.5260781 16.6001719,18.6636563 C16.60875,18.6722344 16.6177031,18.6802969 16.6269375,18.6878438 C16.6915313,18.7404844 16.7704219,18.7668281 16.8492656,18.7668281 C16.9281094,18.7668281 17.0070469,18.7404844 17.0715938,18.6878438 C17.0808281,18.6803438 17.0897813,18.6722344 17.0983594,18.6636563 C17.0985,18.6635156 17.0983594,18.6636563 17.0985,18.6635156 L23.2955625,12.4664063 L23.2955625,15.5743125 Z M10.4379844,12.4545 L9.42895313,12.8107031 L8.75667188,12.1384219 L9.112875,11.1293906 L10.4379844,12.4545 Z" id="形状"></path>
        </g>
        <g id="时间-copy-4" transform="translate(135.000000, 48.000000)" fill="#303033" fill-rule="nonzero">
            <path d="M11.9972267,23.9816471 C5.37176,23.9816471 0.000906666667,18.6165416 0.000906666667,11.9986415 C0.000906666667,5.38071476 5.37176,0.01563596 11.9972267,0.01563596 C18.62248,0.01563596 23.9935467,5.38071476 23.9935467,11.9986415 C23.9935467,18.6165416 18.62248,23.9816471 11.9972267,23.9816471 Z M11.9972267,1.5167414 C6.20189333,1.5167414 1.50373333,6.20968701 1.50373333,11.9985882 C1.50373333,17.7874895 6.20189333,22.4804351 11.9972267,22.4804351 C17.79256,22.4804351 22.49072,17.7874895 22.49072,11.9985882 C22.49072,6.20966038 17.79256,1.5167414 11.9972267,1.5167414 Z M20.99448,11.9986415 C20.99448,12.4122619 20.6587467,12.747596 20.2446933,12.747596 L14.1086933,12.747596 C13.79896,13.6183352 12.9752267,14.2454517 11.9972,14.2454517 C10.75504,14.2454517 9.74789333,13.2393962 9.74789333,11.9986415 C9.74789333,11.0217003 10.37576,10.1989079 11.2474133,9.88933185 L11.2474133,3.76032852 C11.2474133,3.3467081 11.58312,3.01137403 11.9972,3.01137403 C12.41128,3.01137403 12.7469867,3.3467081 12.7469867,3.76032852 L12.7469867,9.88930522 C13.3827387,10.1149196 13.8829154,10.6146097 14.1086933,11.249687 L20.2446933,11.249687 C20.6587467,11.249687 20.99448,11.5850211 20.99448,11.9986415 Z M11.9972267,11.249687 C11.5831467,11.249687 11.24744,11.5850211 11.24744,11.9986415 C11.24744,12.4122619 11.5831467,12.747596 11.9972267,12.747596 C12.4113067,12.747596 12.7470133,12.4122619 12.7470133,11.9986415 C12.7470133,11.5850211 12.4113067,11.249687 11.9972267,11.249687 Z M17.2767467,6.75603996 C16.98408,6.46367148 16.98408,5.98955827 17.2767467,5.69700333 C17.5696267,5.40444839 18.0442933,5.40444839 18.33696,5.69700333 C18.62984,5.98955827 18.62984,6.46369811 18.33696,6.75603996 C18.0442933,7.04859489 17.5696267,7.04859489 17.2767467,6.75603996 Z M5.63224,6.70993119 C5.33936,6.41737625 5.33936,5.9432364 5.63224,5.65089456 C5.92512,5.35833962 6.39978667,5.35833962 6.69266667,5.65089456 C6.98536,5.94326304 6.98536,6.41737625 6.69266667,6.70993119 C6.39976,7.00248613 5.92512,7.00248613 5.63224,6.70993119 Z M6.68677333,17.2733674 C6.97946667,17.5657092 6.97946667,18.0398224 6.68677333,18.332404 C6.39389333,18.6249589 5.91922667,18.6249589 5.62634667,18.332404 C5.33365333,18.0398491 5.33365333,17.5657092 5.62634667,17.273394 C5.91922667,16.9808657 6.39389333,16.9808657 6.68677333,17.273394 L6.68677333,17.2733674 Z M11.9972267,19.488 C12.4113067,19.488 12.7470133,19.8233607 12.7470133,20.2369545 C12.7470133,20.6505483 12.4113067,20.985909 11.9972267,20.985909 C11.5831467,20.985909 11.24744,20.6505483 11.24744,20.2369545 C11.24744,19.8233607 11.5831467,19.488 11.9972267,19.488 Z M18.35472,17.2963818 C18.6476,17.5885638 18.6476,18.0628635 18.35472,18.3554184 C18.06184,18.6479734 17.5871733,18.6479734 17.2942933,18.3554184 C17.0016267,18.0628635 17.0016267,17.5885372 17.2942933,17.2963818 C17.5871733,17.0038269 18.06184,17.0038269 18.35472,17.2963818 Z M3.74978667,12.7475427 C3.33570667,12.7475427 3,12.4122087 3,11.9985882 C3,11.5849678 3.33570667,11.2496337 3.74978667,11.2496337 C4.16386667,11.2496337 4.49957333,11.5849678 4.49957333,11.9985882 C4.49957333,12.4122087 4.16384,12.7475427 3.74978667,12.7475427 Z" id="形状"></path>
        </g>
    </g>
</svg>